<?xml version="1.0" encoding="UTF-8" standalone="no"?>
<!DOCTYPE svg PUBLIC "-//W3C//DTD SVG 1.1//EN" "http://www.w3.org/Graphics/SVG/1.1/DTD/svg11.dtd">
<svg width="100%" height="100%" viewBox="0 0 1200 769" version="1.1" xmlns="http://www.w3.org/2000/svg" xmlns:xlink="http://www.w3.org/1999/xlink" xml:space="preserve" xmlns:serif="http://www.serif.com/" style="fill-rule:evenodd;clip-rule:evenodd;stroke-linejoin:round;stroke-miterlimit:2;">
    <g transform="matrix(1,0,0,1,5.91339e-13,-15.5949)">
        <g transform="matrix(1.44152,0,0,1.44152,-264.911,-176.607)">
            <g>
                <path d="M686.694,493.245L858.523,328.921C822.83,189.747 681.074,105.859 541.899,141.551C479.244,157.62 424.78,196.492 389.219,250.523C391.878,250.456 686.694,493.245 686.694,493.245Z" style="fill:rgb(3,100,184);fill-rule:nonzero;"/>
                <path d="M501.204,281.458L501.196,281.487C468.367,261.153 430.494,250.403 391.878,250.455C390.985,250.455 390.109,250.512 389.219,250.522C274.339,251.945 182.366,346.226 183.788,461.103C184.304,502.769 197.327,543.334 221.162,577.513L478.588,545.271L675.953,386.129L501.204,281.458Z" style="fill:rgb(0,120,212);fill-rule:nonzero;"/>
                <path d="M858.523,328.922C854.745,328.67 850.95,328.495 847.109,328.495C824.058,328.472 801.245,333.181 780.087,342.329L780.082,342.311L675.953,386.13L790.747,527.929L995.971,577.817C1040.26,495.599 1009.51,393.047 927.292,348.76C906.048,337.317 882.599,330.552 858.524,328.923L858.523,328.922Z" style="fill:rgb(20,144,223);fill-rule:nonzero;"/>
                <path d="M221.162,577.513C260.032,633.398 323.805,666.703 391.878,666.667L847.108,666.667C909.294,666.684 966.468,632.56 995.97,577.818L675.952,386.129L221.162,577.513Z" style="fill:rgb(40,168,234);fill-rule:nonzero;"/>
            </g>
        </g>
    </g>
</svg>
