<?xml version="1.0" standalone="no"?>
<!DOCTYPE svg PUBLIC "-//W3C//DTD SVG 20010904//EN"
 "http://www.w3.org/TR/2001/REC-SVG-20010904/DTD/svg10.dtd">
<svg version="1.0" xmlns="http://www.w3.org/2000/svg"
 width="1769.000000pt" height="1769.000000pt" viewBox="0 0 1769.000000 1769.000000"
 preserveAspectRatio="xMidYMid meet">
<metadata>
Created by potrace 1.11, written by Peter Selinger 2001-2013
</metadata>
<g transform="translate(0.000000,1769.000000) scale(0.100000,-0.100000)"
fill="#000000" stroke="none">
<path d="M6919 17686 c-2 -3 -31 -7 -64 -10 -81 -7 -151 -16 -205 -27 -25 -5
-56 -11 -70 -14 -14 -2 -35 -6 -47 -9 -13 -3 -31 -8 -41 -10 -39 -9 -108 -27
-122 -33 -8 -3 -25 -7 -38 -9 -13 -1 -29 -7 -35 -12 -7 -5 -28 -13 -47 -17
-33 -7 -82 -26 -122 -46 -10 -5 -23 -9 -29 -9 -11 0 -315 -148 -354 -173 -261
-163 -414 -282 -585 -456 -96 -98 -180 -191 -180 -199 0 -4 -19 -27 -41 -52
-22 -25 -74 -97 -116 -160 -41 -63 -83 -126 -92 -140 -20 -29 -135 -258 -170
-339 -30 -69 -102 -270 -106 -296 -1 -11 -3 -20 -4 -20 -2 0 -4 -7 -6 -15 -2
-8 -12 -50 -24 -93 -18 -68 -27 -114 -37 -182 -1 -11 -3 -20 -4 -20 -1 0 -7
-43 -13 -93 -2 -15 -6 -33 -10 -39 -8 -13 -4 -12291 4 -12313 3 -8 12 -35 19
-60 27 -87 99 -202 160 -256 14 -12 37 -33 53 -46 26 -22 130 -81 149 -84 4
-1 10 -3 13 -4 3 -1 10 -4 15 -5 6 -1 11 -4 13 -5 1 -1 11 -4 22 -6 11 -2 34
-5 50 -8 31 -6 182 -6 789 -3 342 2 349 2 353 -18 4 -23 4 -108 0 -145 -1 -14
0 -40 4 -58 4 -17 3 -35 -2 -38 -5 -3 -7 -10 -3 -15 3 -5 5 -33 5 -62 -2 -90
0 -120 5 -129 3 -4 1 -8 -4 -8 -5 0 -8 -12 -6 -27 2 -16 4 -53 4 -83 0 -88 0
-249 1 -262 0 -7 -1 -51 -1 -98 -1 -47 -1 -89 0 -95 1 -5 1 -14 0 -20 -1 -5
-1 -32 0 -60 0 -27 1 -56 1 -62 -3 -395 -1 -668 4 -703 23 -159 110 -307 235
-401 80 -60 247 -130 293 -123 9 1 17 -2 17 -7 0 -6 5 -7 12 -3 6 4 45 8 86
10 41 1 87 6 101 10 14 4 29 8 34 9 4 2 8 3 10 5 1 1 10 3 20 5 10 2 26 7 35
11 9 4 19 8 22 8 6 1 80 47 99 61 7 5 528 524 1158 1153 l1144 1142 1647 1
c906 0 1654 2 1662 4 8 2 29 6 47 9 18 3 43 10 56 15 14 6 28 7 31 4 3 -4 6
-1 6 5 0 7 8 12 18 12 30 0 166 96 213 151 24 28 50 57 57 64 6 8 12 16 12 19
0 4 11 24 25 46 14 22 23 40 20 40 -3 0 0 10 7 22 7 13 13 25 13 28 1 3 8 25
15 50 11 35 14 130 14 412 1 203 5 368 9 368 5 0 5 5 1 12 -4 6 -9 1675 -10
3707 -3 3482 -5 3945 -20 4031 -3 19 -7 48 -9 65 -2 16 -4 30 -5 30 -1 0 -3
14 -5 30 -1 17 -13 68 -25 115 -12 47 -23 92 -23 100 0 8 -3 17 -6 20 -4 3
-15 32 -25 65 -55 182 -193 440 -335 625 -134 174 -399 414 -558 506 -26 16
-50 31 -53 34 -26 32 -410 197 -500 215 -8 2 -44 11 -80 20 -90 23 -152 34
-295 51 -33 4 -259 8 -502 8 -244 1 -443 5 -443 9 0 5 -5 5 -11 1 -16 -10
-179 -11 -179 -1 0 4 -8 4 -17 0 -21 -10 -65 -9 -82 1 -6 4 -11 3 -11 -2 0 -8
-50 -9 -70 -1 -3 1 -9 0 -15 -1 -18 -4 -318 0 -322 4 -3 2 -17 0 -33 -4 -16
-4 -31 -6 -34 -3 -4 5 -102 7 -123 3 -5 -1 -39 -1 -76 0 -38 1 -562 3 -1165 5
-604 2 -1117 7 -1142 10 -25 2 -62 7 -82 10 -45 6 -212 49 -253 65 -17 6 -31
11 -33 11 -1 -1 -15 5 -31 13 -16 9 -31 12 -35 9 -3 -4 -6 -1 -6 5 0 7 -6 12
-13 12 -15 0 -81 33 -104 52 -9 7 -19 12 -22 12 -6 -2 -92 46 -101 56 -3 3
-25 19 -50 35 -25 17 -61 43 -80 60 -64 53 -225 219 -250 257 -14 21 -28 38
-32 38 -5 0 -8 5 -8 11 0 6 -8 21 -17 34 -65 85 -142 238 -191 380 -28 83 -37
115 -47 170 -2 11 -8 43 -14 71 -28 143 -31 359 -7 504 3 14 7 43 11 65 14 99
53 229 95 320 5 11 21 47 35 80 14 32 29 62 33 65 4 3 20 31 36 62 15 31 31
58 34 60 4 2 23 26 42 53 38 55 64 87 98 122 12 13 22 28 22 33 0 5 9 12 20
15 11 3 20 13 20 21 0 8 3 14 8 14 4 0 32 23 62 50 70 63 62 57 150 118 41 28
80 56 86 61 6 5 21 12 35 16 13 4 26 11 29 15 16 23 304 136 370 145 14 2 45
8 70 14 70 16 101 20 181 27 41 3 86 6 100 8 15 1 35 -1 45 -5 11 -3 31 -3 45
1 17 5 31 4 38 -3 6 -6 11 -7 11 -2 0 6 36 10 80 10 44 0 80 -3 80 -7 0 -4 13
-3 29 2 19 5 33 4 40 -3 6 -6 11 -7 11 -2 0 11 161 12 178 1 7 -4 12 -3 12 1
0 5 15 8 33 6 17 -2 38 -4 45 -4 130 3 161 3 171 -3 6 -4 11 -4 11 1 0 4 25 8
55 8 30 0 55 -3 55 -6 0 -4 15 -3 34 1 19 4 40 4 47 -1 7 -4 17 -5 23 -2 13 9
66 9 66 1 0 -4 13 -3 29 2 15 4 34 4 41 0 6 -4 26 -4 44 0 17 4 40 4 51 0 11
-4 24 -5 29 -2 5 3 37 4 70 3 34 -1 68 -2 76 -1 8 0 26 0 40 -1 14 0 32 0 40
0 8 1 26 1 40 0 14 0 32 0 40 0 8 1 26 1 40 0 14 0 32 0 40 0 8 1 26 1 40 0
14 0 31 0 38 0 21 2 88 2 130 1 41 -1 232 0 239 1 5 1 13 0 18 -1 6 -1 39 -1
75 -1 36 1 88 1 115 1 28 -1 545 -3 1150 -4 817 -3 1110 -6 1140 -15 222 -67
364 -250 363 -470 -1 -160 -48 -276 -153 -374 -42 -40 -139 -100 -162 -100 -7
0 -13 -3 -13 -7 0 -3 -8 -6 -17 -7 -10 0 -29 -4 -43 -8 -23 -7 -873 -7 -3380
-1 -531 1 -989 -2 -1018 -6 -188 -30 -381 -173 -455 -339 -47 -105 -52 -133
-52 -269 1 -168 54 -298 170 -415 93 -94 189 -145 325 -171 35 -6 4239 -6
4400 1 104 4 190 15 211 26 9 4 19 6 22 3 2 -3 33 2 68 12 35 9 70 17 77 17 6
0 12 4 12 9 0 5 5 6 10 3 6 -4 17 -1 25 5 8 7 15 10 15 7 0 -10 175 64 275
117 244 129 458 326 633 581 13 20 41 70 74 135 18 36 37 68 41 71 5 3 8 8 6
10 -1 2 12 42 31 89 26 69 66 192 69 215 1 3 1 6 2 8 5 16 21 104 24 132 1 17
6 53 10 80 9 59 13 315 4 315 -3 0 -6 17 -6 38 -1 20 -4 51 -7 67 -4 17 -9 46
-12 65 -8 46 -9 48 -23 100 -8 25 -14 50 -15 55 -3 17 -38 120 -45 130 -3 6
-6 12 -7 15 -5 26 -54 127 -93 195 -20 33 -34 63 -33 68 1 4 -2 7 -7 7 -5 0
-12 8 -15 18 -4 10 -14 27 -24 38 -9 10 -26 33 -36 49 -45 71 -189 225 -279
298 -25 21 -52 43 -59 50 -34 32 -221 147 -290 179 -20 9 -52 24 -71 33 -20 9
-41 18 -49 19 -7 2 -26 8 -43 15 -73 31 -242 76 -315 85 -19 3 -35 5 -35 6 0
11 -4925 27 -4936 16z m-1327 -5108 c17 -17 171 -110 245 -148 90 -47 238
-113 333 -148 30 -11 64 -24 75 -28 11 -4 23 -8 28 -9 4 -2 8 -3 10 -5 1 -1 9
-3 17 -5 8 -2 78 -20 155 -40 77 -21 147 -37 155 -37 8 -1 21 -5 28 -11 8 -6
12 -6 12 2 0 8 6 9 18 3 9 -6 41 -13 71 -16 30 -4 64 -8 75 -11 12 -2 46 -8
76 -12 30 -4 987 -9 2125 -9 1139 -1 2077 -3 2085 -6 8 -3 33 -8 55 -12 22 -4
47 -10 55 -13 8 -3 23 -8 34 -10 10 -2 56 -21 101 -42 265 -124 443 -335 529
-626 2 -5 5 -12 6 -15 1 -3 8 -39 16 -80 11 -62 13 -728 13 -3868 0 -2086 -2
-3798 -5 -3805 -3 -9 -344 -12 -1492 -12 -1115 1 -1500 -2 -1537 -11 -87 -21
-126 -37 -200 -85 -22 -15 -361 -346 -753 -738 l-713 -711 2 518 c1 284 -2
528 -5 542 -4 14 -9 30 -10 35 -2 6 -7 25 -11 43 -4 18 -12 35 -16 38 -5 3 -7
10 -4 15 4 5 1 9 -4 9 -6 0 -11 6 -11 13 0 36 -173 237 -203 237 -5 0 -21 8
-35 19 -28 19 -130 58 -172 65 -14 3 -25 5 -25 6 0 4 -347 10 -748 13 -224 2
-410 6 -413 9 -3 4 -5 674 -4 1490 1 815 2 2419 3 3563 1 1373 5 2082 12 2087
7 5 7 8 0 8 -7 0 -9 279 -8 822 2 453 3 841 4 863 0 22 0 45 -1 50 -1 6 -2 25
-1 43 1 34 11 40 33 20z"/>
<path d="M7367 10764 c-1 -1 -22 -4 -47 -7 -239 -31 -457 -241 -496 -477 -17
-105 -6 -234 29 -325 24 -64 54 -120 71 -135 9 -7 16 -16 16 -21 0 -9 79 -90
116 -119 32 -26 124 -80 124 -74 0 4 11 -1 25 -10 14 -9 25 -14 25 -11 0 2 12
0 28 -6 15 -6 36 -14 47 -17 11 -4 697 -8 1525 -9 1264 -2 1513 -1 1558 11 28
8 52 11 52 8 0 -4 4 -2 8 4 4 5 28 18 55 28 39 15 132 77 181 121 25 22 104
134 111 156 4 13 11 29 15 34 24 32 44 137 44 235 -1 203 -82 372 -240 496
-35 27 -80 56 -94 59 -3 1 -18 8 -35 15 -16 7 -32 14 -35 14 -3 1 -11 5 -17 9
-7 5 -13 6 -13 3 0 -2 -15 0 -32 6 -23 7 -501 11 -1526 12 -821 1 -1494 1
-1495 0z"/>
<path d="M7637 8474 c-3 -5 -67 -9 -144 -8 -85 1 -165 -4 -208 -13 -70 -15
-215 -78 -215 -95 0 -4 -6 -8 -12 -8 -21 0 -132 -121 -165 -180 -53 -94 -77
-182 -77 -290 1 -112 8 -155 40 -235 46 -114 122 -207 226 -277 23 -16 47 -28
55 -28 7 0 13 -4 13 -10 0 -11 114 -46 180 -55 25 -4 714 -7 1533 -7 1124 0
1500 3 1540 12 174 40 342 184 406 346 24 62 33 86 37 99 15 59 21 156 10 173
-3 6 -2 13 3 17 6 3 7 15 2 28 -5 12 -14 47 -21 77 -19 84 -82 201 -145 266
-94 97 -258 174 -377 177 -16 0 -28 5 -28 9 0 5 -6 6 -12 1 -18 -10 -228 -10
-228 1 0 5 -6 4 -12 -1 -14 -10 -164 -10 -174 0 -4 4 -15 2 -26 -4 -13 -7 -23
-7 -31 0 -8 6 -18 6 -26 1 -8 -4 -28 -6 -45 -3 -17 2 -35 4 -41 4 -64 -6 -125
-4 -125 2 0 5 -6 5 -12 0 -17 -10 -228 -10 -228 0 0 5 -6 5 -12 0 -17 -10
-228 -10 -228 0 0 5 -6 5 -12 0 -17 -10 -228 -10 -228 0 0 5 -6 5 -12 0 -17
-10 -308 -10 -308 0 0 5 -6 5 -12 0 -17 -10 -308 -10 -308 0 0 5 -6 5 -12 0
-17 -10 -308 -10 -308 0 0 5 -6 5 -12 0 -17 -10 -221 -10 -229 1 -4 4 -9 4
-12 0z"/>
<path d="M7377 6184 c-1 -1 -24 -5 -52 -8 -73 -10 -68 -8 -152 -42 -78 -31
-162 -98 -238 -189 -29 -35 -80 -137 -101 -203 -29 -91 -26 -279 6 -357 4 -11
14 -36 21 -55 17 -48 78 -136 128 -187 56 -57 115 -95 196 -128 81 -32 93 -35
168 -40 31 -2 61 -6 66 -10 5 -3 12 -1 16 5 4 6 12 7 24 1 10 -6 23 -6 31 -1
8 5 21 5 31 -1 11 -6 20 -5 24 1 3 5 15 6 28 1 14 -5 30 -5 40 0 10 6 17 6 17
1 0 -5 20 -6 45 -2 25 4 48 3 51 -1 2 -5 16 -4 29 1 14 5 25 6 25 2 0 -5 23
-6 50 -2 28 4 53 3 56 -1 3 -5 16 -4 29 1 14 5 25 6 25 2 0 -5 23 -6 50 -2 28
4 53 3 56 -1 3 -5 16 -4 29 1 14 5 25 6 25 2 0 -5 23 -6 50 -2 28 4 53 3 56
-1 3 -5 16 -4 29 1 14 5 25 6 25 2 0 -5 23 -6 50 -2 28 4 53 3 56 -1 3 -5 16
-4 29 1 14 5 25 6 25 2 0 -5 23 -6 50 -2 28 4 53 3 56 -1 3 -5 16 -4 29 1 14
5 25 6 25 2 0 -5 23 -6 50 -2 28 4 53 3 56 -1 3 -5 16 -4 29 1 14 5 25 6 25 2
0 -5 23 -6 50 -2 28 4 53 3 56 -1 3 -5 16 -4 29 1 14 5 25 6 25 2 0 -5 23 -6
50 -2 28 4 53 3 56 -1 3 -5 16 -4 29 1 14 5 25 6 25 2 0 -5 23 -6 50 -2 28 4
53 3 56 -1 3 -5 16 -4 29 1 14 5 25 6 25 2 0 -5 23 -6 50 -2 28 4 53 3 56 -1
3 -5 16 -4 29 1 14 5 25 6 25 2 0 -5 23 -6 50 -2 28 4 53 3 56 -1 3 -5 16 -4
29 1 14 5 25 6 25 2 0 -5 23 -6 50 -2 28 4 53 3 56 -1 3 -5 16 -4 29 1 14 5
25 6 25 2 0 -5 23 -6 50 -2 28 4 53 3 56 -1 3 -5 16 -4 29 1 14 5 25 6 25 2 0
-5 23 -6 50 -2 28 4 53 3 56 -1 3 -5 16 -4 29 1 14 5 25 6 25 2 0 -5 23 -6 50
-2 28 4 53 3 56 -1 3 -5 16 -4 29 1 17 6 25 6 25 -1 0 -6 4 -8 9 -5 5 3 37 6
72 7 54 1 121 10 164 22 53 15 98 35 143 63 29 19 57 34 63 34 6 0 7 5 4 10
-3 6 -1 10 5 10 15 0 85 75 124 135 18 27 46 84 61 125 23 63 28 94 30 187 2
99 -1 122 -24 191 -54 160 -154 281 -291 351 -84 43 -146 61 -226 65 -22 1
-45 5 -50 9 -5 3 -16 2 -24 -3 -7 -4 -24 -4 -37 1 -14 5 -23 5 -23 -1 0 -6 -9
-6 -25 0 -17 6 -25 6 -25 -1 0 -6 -6 -7 -17 0 -10 5 -26 5 -40 0 -13 -5 -23
-5 -23 0 0 9 -30 8 -47 -2 -6 -4 -14 -3 -17 1 -6 10 -48 8 -65 -2 -5 -4 -12
-3 -14 1 -6 10 -99 9 -115 -1 -7 -4 -12 -4 -12 1 0 4 -327 9 -728 11 -400 1
-940 3 -1200 5 -260 1 -474 2 -475 1z"/>
</g>
</svg>
