<?xml version="1.0" encoding="UTF-8" standalone="no"?>
<!DOCTYPE svg PUBLIC "-//W3C//DTD SVG 1.1//EN" "http://www.w3.org/Graphics/SVG/1.1/DTD/svg11.dtd">
<svg width="100%" height="100%" viewBox="0 0 1537 924" version="1.1" xmlns="http://www.w3.org/2000/svg"
     xml:space="preserve"
     style="fill-rule:evenodd;clip-rule:evenodd;stroke-linejoin:round;stroke-miterlimit:2;">
    <g transform="matrix(1,0,0,1,-255.999,-562.499)">
        <g id="_233009080">
            <rect id="_233013736" x="255.999" y="562.499" width="1536" height="923" style="fill:rgb(238,238,238);"/>
            <path id="_233013136" d="M1792,633.493L871.112,633.493L871.112,562.499L1792,562.499L1792,633.493Z"
                  style="fill:rgb(190,32,51);"/>
            <path id="_233013616" d="M1792,773.049L871.112,773.049L871.112,702.054L1792,702.054L1792,773.049Z"
                  style="fill:rgb(190,32,51);"/>
            <path id="_233013544" d="M1792,913.009L871.112,913.009L871.112,842.012L1792,842.012L1792,913.009Z"
                  style="fill:rgb(190,32,51);"/>
            <path id="_233013640" d="M1792,1050.53L871.112,1050.53L871.112,979.535L1792,979.535L1792,1050.53Z"
                  style="fill:rgb(190,32,51);"/>
            <path id="_233012896" d="M1792,1188.05L255.999,1188.05L255.999,1117.05L1792,1117.05L1792,1188.05Z"
                  style="fill:rgb(190,32,51);"/>
            <path id="_233012272" d="M1792,1335.31L255.999,1335.31L255.999,1264.32L1792,1264.32L1792,1335.31Z"
                  style="fill:rgb(190,32,51);"/>
            <path id="_233012728" d="M1792,1485.5L255.999,1485.5L255.999,1414.51L1792,1414.51L1792,1485.5Z"
                  style="fill:rgb(190,32,51);"/>
            <path id="_233012464" d="M961.805,1050.54L255.999,1050.54L255.999,562.499L961.805,562.499L961.805,1050.54Z"
                  style="fill:rgb(33,47,100);"/>
            <path id="_233012416"
                  d="M287.954,603.814L308.507,603.814L316.038,582.241L324.381,603.814L344.736,603.814L329.266,617.958L334.966,639.429L316.344,627.421L298.944,639.429L304.029,617.958L287.954,603.814Z"
                  style="fill:white;"/>
            <path id="_233012584"
                  d="M403.552,603.814L424.108,603.814L431.637,582.241L439.982,603.814L460.334,603.814L444.867,617.958L450.566,639.429L431.942,627.421L414.541,639.429L419.628,617.958L403.552,603.814Z"
                  style="fill:white;"/>
            <path id="_233012512"
                  d="M523.22,603.814L543.778,603.814L551.307,582.241L559.65,603.814L580.003,603.814L564.535,617.958L570.233,639.429L551.612,627.421L534.211,639.429L539.3,617.958L523.22,603.814Z"
                  style="fill:white;"/>
            <path id="_233012680"
                  d="M638.821,603.814L659.377,603.814L666.905,582.241L675.251,603.814L695.599,603.814L680.136,617.958L685.83,639.429L667.21,627.421L649.81,639.429L654.899,617.958L638.821,603.814Z"
                  style="fill:white;"/>
            <path id="_233012824"
                  d="M755.234,603.814L775.79,603.814L783.322,582.241L791.664,603.814L812.02,603.814L796.549,617.958L802.248,639.429L783.627,627.421L766.225,639.429L771.31,617.958L755.234,603.814Z"
                  style="fill:white;"/>
            <path id="_233012488"
                  d="M874.09,603.814L894.642,603.814L902.173,582.241L910.518,603.814L930.872,603.814L915.401,617.958L921.103,639.429L902.479,627.421L885.081,639.429L890.166,617.958L874.09,603.814Z"
                  style="fill:white;"/>
            <path id="_233011528"
                  d="M345.751,655.304L366.305,655.304L373.837,633.73L382.179,655.304L402.534,655.304L387.065,669.448L392.765,690.921L374.142,678.914L356.74,690.921L361.827,669.448L345.751,655.304Z"
                  style="fill:white;"/>
            <path id="_233011840"
                  d="M461.353,655.304L481.905,655.304L489.437,633.73L497.78,655.304L518.133,655.304L502.665,669.448L508.365,690.921L489.743,678.914L472.342,690.921L477.428,669.448L461.353,655.304Z"
                  style="fill:white;"/>
            <path id="_233012056"
                  d="M581.021,655.304L601.576,655.304L609.108,633.73L617.45,655.304L637.804,655.304L622.334,669.448L628.034,690.921L609.411,678.914L592.011,690.921L597.096,669.448L581.021,655.304Z"
                  style="fill:white;"/>
            <path id="_233011792"
                  d="M696.619,655.304L717.175,655.304L724.707,633.73L733.048,655.304L753.401,655.304L737.934,669.448L743.632,690.921L725.012,678.914L707.61,690.921L712.7,669.448L696.619,655.304Z"
                  style="fill:white;"/>
            <path id="_233011624"
                  d="M813.036,655.304L833.587,655.304L841.119,633.73L849.461,655.304L869.814,655.304L854.348,669.448L860.046,690.921L841.425,678.914L824.023,690.921L829.112,669.448L813.036,655.304Z"
                  style="fill:white;"/>
            <path id="_233011888"
                  d="M287.954,700.69L308.507,700.69L316.038,679.114L324.381,700.69L344.736,700.69L329.266,714.833L334.966,736.303L316.344,724.296L298.944,736.303L304.029,714.833L287.954,700.69Z"
                  style="fill:white;"/>
            <path id="_233011720"
                  d="M403.552,700.69L424.108,700.69L431.637,679.114L439.982,700.69L460.334,700.69L444.867,714.833L450.566,736.303L431.942,724.296L414.541,736.303L419.628,714.833L403.552,700.69Z"
                  style="fill:white;"/>
            <path id="_233011648"
                  d="M523.22,700.69L543.778,700.69L551.307,679.114L559.65,700.69L580.003,700.69L564.535,714.833L570.233,736.303L551.612,724.296L534.211,736.303L539.3,714.833L523.22,700.69Z"
                  style="fill:white;"/>
            <path id="_233011480"
                  d="M638.821,700.69L659.377,700.69L666.905,679.114L675.251,700.69L695.599,700.69L680.136,714.833L685.83,736.303L667.21,724.296L649.81,736.303L654.899,714.833L638.821,700.69Z"
                  style="fill:white;"/>
            <path id="_233012128"
                  d="M755.234,700.69L775.79,700.69L783.322,679.114L791.664,700.69L812.02,700.69L796.549,714.833L802.248,736.303L783.627,724.296L766.225,736.303L771.31,714.833L755.234,700.69Z"
                  style="fill:white;"/>
            <path id="_233012104"
                  d="M874.09,700.69L894.642,700.69L902.173,679.114L910.518,700.69L930.872,700.69L915.401,714.833L921.103,736.303L902.479,724.296L885.081,736.303L890.166,714.833L874.09,700.69Z"
                  style="fill:white;"/>
            <path id="_233011096"
                  d="M345.751,752.18L366.305,752.18L373.837,730.606L382.179,752.18L402.534,752.18L387.065,766.323L392.765,787.794L374.142,775.788L356.74,787.794L361.827,766.323L345.751,752.18Z"
                  style="fill:white;"/>
            <path id="_233010712"
                  d="M461.353,752.18L481.905,752.18L489.437,730.606L497.78,752.18L518.133,752.18L502.665,766.323L508.365,787.794L489.743,775.788L472.342,787.794L477.428,766.323L461.353,752.18Z"
                  style="fill:white;"/>
            <path id="_233010904"
                  d="M581.021,752.18L601.576,752.18L609.108,730.606L617.45,752.18L637.804,752.18L622.334,766.323L628.034,787.794L609.411,775.788L592.011,787.794L597.096,766.323L581.021,752.18Z"
                  style="fill:white;"/>
            <path id="_233010736"
                  d="M696.619,752.18L717.175,752.18L724.707,730.606L733.048,752.18L753.401,752.18L737.934,766.323L743.632,787.794L725.012,775.788L707.61,787.794L712.7,766.323L696.619,752.18Z"
                  style="fill:white;"/>
            <path id="_233011264"
                  d="M813.036,752.18L833.587,752.18L841.119,730.606L849.461,752.18L869.814,752.18L854.348,766.323L860.046,787.794L841.425,775.788L824.023,787.794L829.112,766.323L813.036,752.18Z"
                  style="fill:white;"/>
            <path id="_233011456"
                  d="M287.954,799.194L308.507,799.194L316.038,777.619L324.381,799.194L344.736,799.194L329.266,813.337L334.966,834.807L316.344,822.8L298.944,834.807L304.029,813.337L287.954,799.194Z"
                  style="fill:white;"/>
            <path id="_233011312"
                  d="M403.552,799.194L424.108,799.194L431.637,777.619L439.982,799.194L460.334,799.194L444.867,813.337L450.566,834.807L431.942,822.8L414.541,834.807L419.628,813.337L403.552,799.194Z"
                  style="fill:white;"/>
            <path id="_233011408"
                  d="M523.22,799.194L543.778,799.194L551.307,777.619L559.65,799.194L580.003,799.194L564.535,813.337L570.233,834.807L551.612,822.8L534.211,834.807L539.3,813.337L523.22,799.194Z"
                  style="fill:white;"/>
            <path id="_233011144"
                  d="M638.821,799.194L659.377,799.194L666.905,777.619L675.251,799.194L695.599,799.194L680.136,813.337L685.83,834.807L667.21,822.8L649.81,834.807L654.899,813.337L638.821,799.194Z"
                  style="fill:white;"/>
            <path id="_233011048"
                  d="M755.234,799.194L775.79,799.194L783.322,777.619L791.664,799.194L812.02,799.194L796.549,813.337L802.248,834.807L783.627,822.8L766.225,834.807L771.31,813.337L755.234,799.194Z"
                  style="fill:white;"/>
            <path id="_233010136"
                  d="M874.09,799.194L894.642,799.194L902.173,777.619L910.518,799.194L930.872,799.194L915.401,813.337L921.103,834.807L902.479,822.8L885.081,834.807L890.166,813.337L874.09,799.194Z"
                  style="fill:white;"/>
            <path id="_233009968"
                  d="M345.751,850.685L366.305,850.685L373.837,829.111L382.179,850.685L402.534,850.685L387.065,864.829L392.765,886.299L374.142,874.292L356.74,886.299L361.827,864.829L345.751,850.685Z"
                  style="fill:white;"/>
            <path id="_233010496"
                  d="M461.353,850.685L481.905,850.685L489.437,829.111L497.78,850.685L518.133,850.685L502.665,864.829L508.365,886.299L489.743,874.292L472.342,886.299L477.428,864.829L461.353,850.685Z"
                  style="fill:white;"/>
            <path id="_233010088"
                  d="M581.021,850.685L601.576,850.685L609.108,829.111L617.45,850.685L637.804,850.685L622.334,864.829L628.034,886.299L609.411,874.292L592.011,886.299L597.096,864.829L581.021,850.685Z"
                  style="fill:white;"/>
            <path id="_233010280"
                  d="M696.619,850.685L717.175,850.685L724.707,829.111L733.048,850.685L753.401,850.685L737.934,864.829L743.632,886.299L725.012,874.292L707.61,886.299L712.7,864.829L696.619,850.685Z"
                  style="fill:white;"/>
            <path id="_233010184"
                  d="M813.036,850.685L833.587,850.685L841.119,829.111L849.461,850.685L869.814,850.685L854.348,864.829L860.046,886.299L841.425,874.292L824.023,886.299L829.112,864.829L813.036,850.685Z"
                  style="fill:white;"/>
            <path id="_233010112"
                  d="M287.954,896.272L308.507,896.272L316.038,874.698L324.381,896.272L344.736,896.272L329.266,910.416L334.966,931.885L316.344,919.879L298.944,931.885L304.029,910.416L287.954,896.272Z"
                  style="fill:white;"/>
            <path id="_233010400"
                  d="M403.552,896.272L424.108,896.272L431.637,874.698L439.982,896.272L460.334,896.272L444.867,910.416L450.566,931.885L431.942,919.879L414.541,931.885L419.628,910.416L403.552,896.272Z"
                  style="fill:white;"/>
            <path id="_233010616"
                  d="M523.22,896.272L543.778,896.272L551.307,874.698L559.65,896.272L580.003,896.272L564.535,910.416L570.233,931.885L551.612,919.879L534.211,931.885L539.3,910.416L523.22,896.272Z"
                  style="fill:white;"/>
            <path id="_233010568"
                  d="M638.821,896.272L659.377,896.272L666.905,874.698L675.251,896.272L695.599,896.272L680.136,910.416L685.83,931.885L667.21,919.879L649.81,931.885L654.899,910.416L638.821,896.272Z"
                  style="fill:white;"/>
            <path id="_233010688"
                  d="M755.234,896.272L775.79,896.272L783.322,874.698L791.664,896.272L812.02,896.272L796.549,910.416L802.248,931.885L783.627,919.879L766.225,931.885L771.31,910.416L755.234,896.272Z"
                  style="fill:white;"/>
            <path id="_233009224"
                  d="M874.09,896.272L894.642,896.272L902.173,874.698L910.518,896.272L930.872,896.272L915.401,910.416L921.103,931.885L902.479,919.879L885.081,931.885L890.166,910.416L874.09,896.272Z"
                  style="fill:white;"/>
            <path id="_233009200"
                  d="M287.954,992.33L308.507,992.33L316.038,970.763L324.381,992.33L344.736,992.33L329.266,1006.48L334.966,1027.95L316.344,1015.94L298.944,1027.95L304.029,1006.48L287.954,992.33Z"
                  style="fill:white;"/>
            <path id="_233009800"
                  d="M403.552,992.33L424.108,992.33L431.637,970.763L439.982,992.33L460.334,992.33L444.867,1006.48L450.566,1027.95L431.942,1015.94L414.541,1027.95L419.628,1006.48L403.552,992.33Z"
                  style="fill:white;"/>
            <path id="_233009728"
                  d="M523.22,992.33L543.778,992.33L551.307,970.763L559.65,992.33L580.003,992.33L564.535,1006.48L570.233,1027.95L551.612,1015.94L534.211,1027.95L539.3,1006.48L523.22,992.33Z"
                  style="fill:white;"/>
            <path id="_233009584"
                  d="M638.821,992.33L659.377,992.33L666.905,970.763L675.251,992.33L695.599,992.33L680.136,1006.48L685.83,1027.95L667.21,1015.94L649.81,1027.95L654.899,1006.48L638.821,992.33Z"
                  style="fill:white;"/>
            <path id="_233009488"
                  d="M755.234,992.33L775.79,992.33L783.322,970.763L791.664,992.33L812.02,992.33L796.549,1006.48L802.248,1027.95L783.627,1015.94L766.225,1027.95L771.31,1006.48L755.234,992.33Z"
                  style="fill:white;"/>
            <path id="_233009680"
                  d="M874.09,992.33L894.642,992.33L902.173,970.763L910.518,992.33L930.872,992.33L915.401,1006.48L921.103,1027.95L902.479,1015.94L885.081,1027.95L890.166,1006.48L874.09,992.33Z"
                  style="fill:white;"/>
            <path id="_233009752"
                  d="M345.751,947.766L366.305,947.766L373.837,926.19L382.179,947.766L402.534,947.766L387.065,961.908L392.765,983.379L374.142,971.372L356.74,983.379L361.827,961.908L345.751,947.766Z"
                  style="fill:white;"/>
            <path id="_233009848"
                  d="M461.353,947.766L481.905,947.766L489.437,926.19L497.78,947.766L518.133,947.766L502.665,961.908L508.365,983.379L489.743,971.372L472.342,983.379L477.428,961.908L461.353,947.766Z"
                  style="fill:white;"/>
            <path id="_233009536"
                  d="M581.021,947.766L601.576,947.766L609.108,926.19L617.45,947.766L637.804,947.766L622.334,961.908L628.034,983.379L609.411,971.372L592.011,983.379L597.096,961.908L581.021,947.766Z"
                  style="fill:white;"/>
            <path id="_233008720"
                  d="M696.619,947.766L717.175,947.766L724.707,926.19L733.048,947.766L753.401,947.766L737.934,961.908L743.632,983.379L725.012,971.372L707.61,983.379L712.7,961.908L696.619,947.766Z"
                  style="fill:white;"/>
            <path id="_233009104"
                  d="M813.036,947.766L833.587,947.766L841.119,926.19L849.461,947.766L869.814,947.766L854.348,961.908L860.046,983.379L841.425,971.372L824.023,983.379L829.112,961.908L813.036,947.766Z"
                  style="fill:white;"/>
        </g>
    </g>
</svg>
