<?xml version="1.0" encoding="UTF-8" standalone="no"?>
<!DOCTYPE svg PUBLIC "-//W3C//DTD SVG 1.1//EN" "http://www.w3.org/Graphics/SVG/1.1/DTD/svg11.dtd">
<svg width="100%" height="100%" viewBox="0 0 1768 1768" version="1.1" xmlns="http://www.w3.org/2000/svg" xmlns:xlink="http://www.w3.org/1999/xlink" xml:space="preserve" xmlns:serif="http://www.serif.com/" style="fill-rule:evenodd;clip-rule:evenodd;stroke-linejoin:round;stroke-miterlimit:2;">
    <g transform="matrix(1,0,0,1,-3990.96,-1936.47)">
        <g>
            <g transform="matrix(-603.95,1612.98,1612.98,603.95,5107.55,2059.64)">
                <g>
                    <g>
                        <path d="M0.015,-0.244C0.046,-0.327 0.14,-0.37 0.224,-0.339L0.869,-0.097C0.887,-0.09 0.897,-0.07 0.89,-0.052L0.868,0.005L0.967,0.042C0.98,0.047 0.989,0.06 0.989,0.074C0.99,0.078 0.989,0.083 0.987,0.087C0.984,0.096 0.978,0.103 0.969,0.107L0.802,0.183L0.736,0.359C0.729,0.377 0.709,0.386 0.691,0.38L0.249,0.214C0.184,0.19 0.151,0.117 0.176,0.052L0.253,-0.155C0.271,-0.202 0.247,-0.255 0.199,-0.273C0.151,-0.291 0.098,-0.267 0.08,-0.219L-0.011,0.025C-0.016,0.039 -0.009,0.056 0.006,0.061C0.021,0.067 0.037,0.06 0.043,0.045L0.128,-0.184C0.135,-0.202 0.155,-0.212 0.173,-0.205C0.192,-0.198 0.201,-0.178 0.194,-0.16L0.108,0.069C0.089,0.12 0.032,0.146 -0.019,0.127C-0.069,0.108 -0.095,0.051 -0.076,0L0.015,-0.244ZM0.324,-0.226C0.332,-0.195 0.33,-0.162 0.319,-0.13L0.241,0.077C0.23,0.106 0.245,0.138 0.274,0.149L0.683,0.302L0.742,0.145C0.745,0.136 0.751,0.129 0.76,0.125L0.863,0.078L0.811,0.059C0.793,0.052 0.784,0.032 0.791,0.014L0.812,-0.044L0.324,-0.226Z" style="fill:url(#_Linear1);fill-rule:nonzero;"/>
                    </g>
                </g>
            </g>
            <g transform="matrix(-603.946,1612.98,1612.98,603.946,5110.5,2060.74)">
                <g>
                    <path d="M0.386,-0.09C0.393,-0.108 0.413,-0.117 0.431,-0.11C0.449,-0.103 0.458,-0.083 0.452,-0.065L0.394,0.09C0.387,0.108 0.367,0.117 0.349,0.11C0.331,0.103 0.321,0.083 0.328,0.065L0.386,-0.09Z" style="fill:url(#_Linear2);fill-rule:nonzero;"/>
                </g>
            </g>
            <g transform="matrix(-603.942,1612.96,1612.96,603.942,5185.8,2088.94)">
                <g>
                    <path d="M0.511,-0.09C0.518,-0.108 0.538,-0.117 0.556,-0.11C0.574,-0.103 0.583,-0.083 0.576,-0.065L0.518,0.09C0.512,0.108 0.491,0.117 0.473,0.11C0.455,0.103 0.446,0.083 0.453,0.065L0.511,-0.09Z" style="fill:url(#_Linear3);fill-rule:nonzero;"/>
                </g>
            </g>
            <g transform="matrix(-603.946,1612.98,1612.98,603.946,5261.09,2117.14)">
                <g>
                    <path d="M0.635,-0.09C0.642,-0.108 0.662,-0.117 0.681,-0.11C0.699,-0.103 0.708,-0.083 0.701,-0.065L0.643,0.09C0.636,0.108 0.616,0.117 0.598,0.11C0.58,0.103 0.571,0.083 0.578,0.065L0.635,-0.09Z" style="fill:url(#_Linear4);fill-rule:nonzero;"/>
                </g>
            </g>
        </g>
    </g>
    <defs>
        <linearGradient id="_Linear1" x1="0" y1="0" x2="1" y2="0" gradientUnits="userSpaceOnUse" gradientTransform="matrix(1,0,0,1,0,0.0164991)"><stop offset="0" style="stop-color:rgb(66,140,255);stop-opacity:1"/><stop offset="0.5" style="stop-color:rgb(80,200,255);stop-opacity:1"/><stop offset="1" style="stop-color:rgb(121,116,255);stop-opacity:1"/></linearGradient>
        <linearGradient id="_Linear2" x1="0" y1="0" x2="1" y2="0" gradientUnits="userSpaceOnUse" gradientTransform="matrix(1,-5.55112e-17,5.55112e-17,1,0,1.41152e-06)"><stop offset="0" style="stop-color:rgb(66,140,255);stop-opacity:1"/><stop offset="0.5" style="stop-color:rgb(80,200,255);stop-opacity:1"/><stop offset="1" style="stop-color:rgb(121,116,255);stop-opacity:1"/></linearGradient>
        <linearGradient id="_Linear3" x1="0" y1="0" x2="1" y2="0" gradientUnits="userSpaceOnUse" gradientTransform="matrix(1,5.55112e-17,-5.55112e-17,1,0,2.00646e-06)"><stop offset="0" style="stop-color:rgb(66,140,255);stop-opacity:1"/><stop offset="0.5" style="stop-color:rgb(80,200,255);stop-opacity:1"/><stop offset="1" style="stop-color:rgb(121,116,255);stop-opacity:1"/></linearGradient>
        <linearGradient id="_Linear4" x1="0" y1="0" x2="1" y2="0" gradientUnits="userSpaceOnUse" gradientTransform="matrix(1,-5.55112e-17,5.55112e-17,1,0,2.09998e-06)"><stop offset="0" style="stop-color:rgb(66,140,255);stop-opacity:1"/><stop offset="0.5" style="stop-color:rgb(80,200,255);stop-opacity:1"/><stop offset="1" style="stop-color:rgb(121,116,255);stop-opacity:1"/></linearGradient>
    </defs>
</svg>
